<?xml version="1.0" encoding="UTF-8" standalone="no"?>
<svg width="800px" height="600px" viewBox="0 0 800 600" version="1.1" xmlns="http://www.w3.org/2000/svg" xmlns:xlink="http://www.w3.org/1999/xlink" xmlns:sketch="http://www.bohemiancoding.com/sketch/ns">
    <!-- Generator: Sketch 3.4.2 (15857) - http://www.bohemiancoding.com/sketch -->
    <title>app-icon-board</title>
    <desc>Created with Sketch.</desc>
    <defs>
        <filter x="-50%" y="-50%" width="200%" height="200%" filterUnits="objectBoundingBox" id="filter-1">
            <feOffset dx="0" dy="5" in="SourceAlpha" result="shadowOffsetOuter1"></feOffset>
            <feGaussianBlur stdDeviation="2.5" in="shadowOffsetOuter1" result="shadowBlurOuter1"></feGaussianBlur>
            <feColorMatrix values="0 0 0 0 0   0 0 0 0 0   0 0 0 0 0  0 0 0 0.07 0" in="shadowBlurOuter1" type="matrix" result="shadowMatrixOuter1"></feColorMatrix>
            <feMerge>
                <feMergeNode in="shadowMatrixOuter1"></feMergeNode>
                <feMergeNode in="SourceGraphic"></feMergeNode>
            </feMerge>
        </filter>
        <path id="path-2" d="M358.425522,314.612533 C386.918372,292.429159 386.914634,256.459893 358.425522,234.27943 L241.487748,143.236439 C212.994898,121.053065 166.795121,121.055976 138.306009,143.236439 L21.3682358,234.27943 C-7.12461463,256.462804 -7.12087586,292.43207 21.3682358,314.612533 L138.306009,405.655524 C166.79886,427.838898 212.998637,427.835987 241.487748,405.655524 L358.425522,314.612533 Z"></path>
        <filter x="-50%" y="-50%" width="200%" height="200%" filterUnits="objectBoundingBox" id="filter-3">
            <feOffset dx="0" dy="5" in="SourceAlpha" result="shadowOffsetOuter1"></feOffset>
            <feGaussianBlur stdDeviation="2.5" in="shadowOffsetOuter1" result="shadowBlurOuter1"></feGaussianBlur>
            <feColorMatrix values="0 0 0 0 0   0 0 0 0 0   0 0 0 0 0  0 0 0 0.07 0" in="shadowBlurOuter1" type="matrix" result="shadowMatrixOuter1"></feColorMatrix>
            <feMerge>
                <feMergeNode in="shadowMatrixOuter1"></feMergeNode>
                <feMergeNode in="SourceGraphic"></feMergeNode>
            </feMerge>
        </filter>
        <path id="path-4" d="M358.425522,251.312533 C386.918372,229.129159 386.914634,193.159893 358.425522,170.97943 L241.487748,79.9364388 C212.994898,57.753065 166.795121,57.7559759 138.306009,79.9364388 L21.3682358,170.97943 C-7.12461463,193.162804 -7.12087586,229.13207 21.3682358,251.312533 L138.306009,342.355524 C166.79886,364.538898 212.998637,364.535987 241.487748,342.355524 L358.425522,251.312533 Z"></path>
        <linearGradient x1="48.3081043%" y1="100%" x2="48.3081043%" y2="0%" id="linearGradient-5">
            <stop stop-color="#FBAD3F" offset="0%"></stop>
            <stop stop-color="#FF3727" offset="100%"></stop>
        </linearGradient>
        <path id="path-6" d="M358.425522,188.012533 C386.918372,165.829159 386.914634,129.859893 358.425522,107.67943 L241.487748,16.6364388 C212.994898,-5.54693499 166.795121,-5.54402414 138.306009,16.6364388 L21.3682358,107.67943 C-7.12461463,129.862804 -7.12087586,165.83207 21.3682358,188.012533 L138.306009,279.055524 C166.79886,301.238898 212.998637,301.235987 241.487748,279.055524 L358.425522,188.012533 Z"></path>
        <filter x="-50%" y="-50%" width="200%" height="200%" filterUnits="objectBoundingBox" id="filter-7">
            <feOffset dx="0" dy="5" in="SourceAlpha" result="shadowOffsetOuter1"></feOffset>
            <feGaussianBlur stdDeviation="2.5" in="shadowOffsetOuter1" result="shadowBlurOuter1"></feGaussianBlur>
            <feColorMatrix values="0 0 0 0 0   0 0 0 0 0   0 0 0 0 0  0 0 0 0.07 0" in="shadowBlurOuter1" type="matrix" result="shadowMatrixOuter1"></feColorMatrix>
            <feMerge>
                <feMergeNode in="shadowMatrixOuter1"></feMergeNode>
                <feMergeNode in="SourceGraphic"></feMergeNode>
            </feMerge>
        </filter>
        <path id="path-8" d="M200.994876,73.9239587 C263.044575,114.073764 244.072268,164.565185 244.072268,164.565185 C244.072268,164.565185 250.763903,172.169315 254.10972,181.598436 C257.455537,191.027557 257.418671,202.585834 256.81034,202.889999 C256.20201,203.194165 248.358468,189.810896 234.643147,189.810896 C220.927827,189.810896 213.95991,202.889999 189.626699,202.889999 C134.8381,202.889999 111.076041,157.949594 111.076041,157.949594 C111.076041,157.949594 135.181133,175.210967 160.426846,174.602637 C185.672559,173.994306 192.668351,166.694342 192.668351,166.694342 C192.668351,166.694342 181.380146,157.248766 161.947669,138.254896 C142.515192,119.261027 124.231186,93.0863657 124.231186,93.0863657 C124.231186,93.0863657 153.524357,116.302646 162.92028,123.131903 C172.316203,129.961159 181.712126,136.150173 181.712126,136.150173 C181.712126,136.150173 172.612293,126.333119 166.205982,118.436791 C159.799671,110.540463 143.393593,86.6988967 143.393593,86.6988967 C143.393593,86.6988967 168.55586,109.416546 180.003776,118.436789 C191.451693,127.457032 213.351587,142.665292 213.351587,142.665292 C213.351587,142.665292 226.544752,112.552938 200.994876,73.9239587 Z"></path>
    </defs>
    <g id="Page-1" stroke="none" stroke-width="1" fill="none" fill-rule="evenodd" sketch:type="MSPage">
        <g id="app-icon-board" sketch:type="MSArtboardGroup">
            <g id="icon" sketch:type="MSLayerGroup" transform="translate(210.000000, 40.000000)">
                <g id="Bottom" filter="url(#filter-1)" stroke-width="2">
                    <use stroke="#333333" fill="#333333" fill-rule="evenodd" sketch:type="MSShapeGroup" xlink:href="#path-2"></use>
                    <use stroke-opacity="0.1" stroke="#363338" fill="none" xlink:href="#path-2"></use>
                </g>
                <g id="Middle" filter="url(#filter-3)" stroke-width="2">
                    <use stroke="#666666" fill="#666666" fill-rule="evenodd" sketch:type="MSShapeGroup" xlink:href="#path-4"></use>
                    <use stroke-opacity="0.1" stroke="#363338" fill="none" xlink:href="#path-4"></use>
                </g>
                <g id="Top">
                    <use stroke="#42C88A" stroke-width="2" fill="url(#linearGradient-5)" sketch:type="MSShapeGroup" xlink:href="#path-6"></use>
                    <use stroke-opacity="0.1" stroke="#000000" stroke-width="1" fill="#42C88A" xlink:href="#path-6"></use>
                </g>
                <g id="countour" filter="url(#filter-7)" stroke="#363338" stroke-width="2" opacity="0.5">
                    <use fill="#363338" fill-rule="evenodd" sketch:type="MSShapeGroup" xlink:href="#path-8"></use>
                    <use stroke-opacity="0.1" fill="none" xlink:href="#path-8"></use>
                </g>
            </g>
            <path d="M324.368,524.52 C324.304,523.047993 323.992003,521.768005 323.432,520.68 C322.871997,519.591995 322.112005,518.680004 321.152,517.944 C320.191995,517.207996 319.048007,516.656002 317.72,516.288 C316.391993,515.919998 314.944008,515.736 313.376,515.736 C312.415995,515.736 311.384006,515.847999 310.28,516.072 C309.175994,516.296001 308.152005,516.687997 307.208,517.248 C306.263995,517.808003 305.488003,518.559995 304.88,519.504 C304.271997,520.448005 303.968,521.623993 303.968,523.032 C303.968,524.408007 304.303997,525.527996 304.976,526.392 C305.648003,527.256004 306.527995,527.951997 307.616,528.48 C308.704005,529.008003 309.951993,529.431998 311.36,529.752 C312.768007,530.072002 314.191993,530.375999 315.632,530.664 C317.104007,530.952001 318.535993,531.295998 319.928,531.696 C321.320007,532.096002 322.567994,532.639997 323.672,533.328 C324.776006,534.016003 325.663997,534.911994 326.336,536.016 C327.008003,537.120006 327.344,538.503992 327.344,540.168 C327.344,541.960009 326.960004,543.463994 326.192,544.68 C325.423996,545.896006 324.456006,546.887996 323.288,547.656 C322.119994,548.424004 320.824007,548.975998 319.4,549.312 C317.975993,549.648002 316.608007,549.816 315.296,549.816 C313.27999,549.816 311.392009,549.600002 309.632,549.168 C307.871991,548.735998 306.336007,548.032005 305.024,547.056 C303.711993,546.079995 302.680004,544.824008 301.928,543.288 C301.175996,541.751992 300.816,539.880011 300.848,537.672 L302.96,537.672 C302.864,539.560009 303.135997,541.151994 303.776,542.448 C304.416003,543.744006 305.303994,544.807996 306.44,545.64 C307.576006,546.472004 308.911992,547.071998 310.448,547.44 C311.984008,547.808002 313.599992,547.992 315.296,547.992 C316.320005,547.992 317.415994,547.864001 318.584,547.608 C319.752006,547.351999 320.823995,546.920003 321.8,546.312 C322.776005,545.703997 323.591997,544.904005 324.248,543.912 C324.904003,542.919995 325.232,541.672008 325.232,540.168 C325.232,538.727993 324.896003,537.552005 324.224,536.64 C323.551997,535.727995 322.664006,534.992003 321.56,534.432 C320.455994,533.871997 319.208007,533.424002 317.816,533.088 C316.423993,532.751998 314.992007,532.440001 313.52,532.152 C312.079993,531.863999 310.656007,531.528002 309.248,531.144 C307.839993,530.759998 306.592005,530.240003 305.504,529.584 C304.415995,528.927997 303.536003,528.080005 302.864,527.04 C302.191997,525.999995 301.856,524.664008 301.856,523.032 C301.856,521.399992 302.199997,520.000006 302.888,518.832 C303.576003,517.663994 304.471994,516.720004 305.576,516 C306.680006,515.279996 307.919993,514.752002 309.296,514.416 C310.672007,514.079998 312.031993,513.912 313.376,513.912 C315.168009,513.912 316.839992,514.111998 318.392,514.512 C319.944008,514.912002 321.303994,515.535996 322.472,516.384 C323.640006,517.232004 324.575996,518.327993 325.28,519.672 C325.984004,521.016007 326.384,522.631991 326.48,524.52 L324.368,524.52 Z M343.048,546.888 L343.144,546.888 L349.864,524.328 L352.312,524.328 L359.08,546.888 L359.176,546.888 L366.088,524.328 L368.104,524.328 L360.184,549 L357.928,549 L351.16,526.632 L351.064,526.632 L344.248,549 L341.944,549 L334.12,524.328 L336.088,524.328 L343.048,546.888 Z M376.128,519.672 L376.128,514.728 L377.952,514.728 L377.952,519.672 L376.128,519.672 Z M376.128,549 L376.128,524.328 L377.952,524.328 L377.952,549 L376.128,549 Z M386.072,525.912 L386.072,524.328 L390.488,524.328 L390.488,519.24 C390.488,518.375996 390.631999,517.632003 390.92,517.008 C391.208001,516.383997 391.599998,515.880002 392.096,515.496 C392.592002,515.111998 393.167997,514.824001 393.824,514.632 C394.480003,514.439999 395.175996,514.344 395.912,514.344 C396.456003,514.344 397.175996,514.423999 398.072,514.584 L398.072,516.168 C397.175996,516.007999 396.456003,515.928 395.912,515.928 C394.887995,515.928 394.032003,516.159998 393.344,516.624 C392.655997,517.088002 392.312,518.007993 392.312,519.384 L392.312,524.328 L397.448,524.328 L397.448,525.912 L392.312,525.912 L392.312,549 L390.488,549 L390.488,525.912 L386.072,525.912 Z M414.4,525.912 L409.024,525.912 L409.024,543.144 C409.024,544.136005 409.135999,544.919997 409.36,545.496 C409.584001,546.072003 409.927998,546.511998 410.392,546.816 C410.856002,547.120002 411.415997,547.304 412.072,547.368 C412.728003,547.432 413.487996,547.448 414.352,547.416 L414.352,549 C413.423995,549.064 412.520004,549.056 411.64,548.976 C410.759996,548.896 409.984003,548.656002 409.312,548.256 C408.639997,547.855998 408.104002,547.256004 407.704,546.456 C407.303998,545.655996 407.136,544.552007 407.2,543.144 L407.2,525.912 L402.64,525.912 L402.64,524.328 L407.2,524.328 L407.2,516.648 L409.024,516.648 L409.024,524.328 L414.4,524.328 L414.4,525.912 Z M425.016,514.728 L425.016,549 L423.192,549 L423.192,514.728 L425.016,514.728 Z M436.256,519.672 L436.256,514.728 L438.08,514.728 L438.08,519.672 L436.256,519.672 Z M436.256,549 L436.256,524.328 L438.08,524.328 L438.08,549 L436.256,549 Z M448.888,524.328 L450.712,524.328 L450.712,529.608 L450.808,529.608 C451.128002,528.679995 451.583997,527.856004 452.176,527.136 C452.768003,526.415996 453.455996,525.800003 454.24,525.288 C455.024004,524.775997 455.879995,524.392001 456.808,524.136 C457.736005,523.879999 458.679995,523.752 459.64,523.752 C461.080007,523.752 462.303995,523.927998 463.312,524.28 C464.320005,524.632002 465.143997,525.095997 465.784,525.672 C466.424003,526.248003 466.927998,526.895996 467.296,527.616 C467.664002,528.336004 467.927999,529.063996 468.088,529.8 C468.248001,530.536004 468.344,531.247997 468.376,531.936 C468.408,532.624003 468.424,533.223997 468.424,533.736 L468.424,549 L466.6,549 L466.6,533.4 C466.6,532.791997 466.552,532.024005 466.456,531.096 C466.36,530.167995 466.080002,529.280004 465.616,528.432 C465.151998,527.583996 464.448005,526.856003 463.504,526.248 C462.559995,525.639997 461.256008,525.336 459.592,525.336 C458.183993,525.336 456.936005,525.591997 455.848,526.104 C454.759995,526.616003 453.832004,527.327995 453.064,528.24 C452.295996,529.152005 451.712002,530.239994 451.312,531.504 C450.911998,532.768006 450.712,534.151992 450.712,535.656 L450.712,549 L448.888,549 L448.888,524.328 Z M479.52,536.904 L479.52,537.192 C479.52,538.632007 479.711998,540.007993 480.096,541.32 C480.480002,542.632007 481.047996,543.783995 481.8,544.776 C482.552004,545.768005 483.495994,546.551997 484.632,547.128 C485.768006,547.704003 487.087992,547.992 488.592,547.992 C491.056012,547.992 493.007993,547.344006 494.448,546.048 C495.888007,544.751994 496.879997,542.952012 497.424,540.648 L499.248,540.648 C498.703997,543.528014 497.528009,545.735992 495.72,547.272 C493.911991,548.808008 491.520015,549.576 488.544,549.576 C486.719991,549.576 485.128007,549.248003 483.768,548.592 C482.407993,547.935997 481.272005,547.040006 480.36,545.904 C479.447995,544.767994 478.768002,543.424008 478.32,541.872 C477.871998,540.319992 477.648,538.648009 477.648,536.856 C477.648,535.127991 477.879998,533.472008 478.344,531.888 C478.808002,530.303992 479.503995,528.912006 480.432,527.712 C481.360005,526.511994 482.519993,525.552004 483.912,524.832 C485.304007,524.111996 486.943991,523.752 488.832,523.752 C490.560009,523.752 492.087993,524.071997 493.416,524.712 C494.744007,525.352003 495.855996,526.223994 496.752,527.328 C497.648004,528.432006 498.327998,529.711993 498.792,531.168 C499.256002,532.624007 499.488,534.183992 499.488,535.848 C499.488,536.008001 499.48,536.191999 499.464,536.4 C499.448,536.608001 499.44,536.775999 499.44,536.904 L479.52,536.904 Z M497.616,535.32 C497.552,533.975993 497.328002,532.704006 496.944,531.504 C496.559998,530.303994 495.992004,529.248005 495.24,528.336 C494.487996,527.423995 493.576005,526.696003 492.504,526.152 C491.431995,525.607997 490.208007,525.336 488.832,525.336 C487.359993,525.336 486.064006,525.615997 484.944,526.176 C483.823994,526.736003 482.880004,527.471995 482.112,528.384 C481.343996,529.296005 480.752002,530.359994 480.336,531.576 C479.919998,532.792006 479.664,534.039994 479.568,535.32 L497.616,535.32 Z" id="swiftline" fill="#363338" sketch:type="MSShapeGroup"></path>
        </g>
    </g>
</svg>